<svg xmlns="http://www.w3.org/2000/svg" viewBox="0 0 800 600" width="800" height="600"><defs>
      <linearGradient id="sky3" x1="0" y1="0" x2="0" y2="1"><stop offset="0" stop-color="#143a28"/><stop offset="1" stop-color="#06140e"/></linearGradient>
      <linearGradient id="gold3" x1="0" y1="0" x2="1" y2="1"><stop offset="0" stop-color="#f0dca0"/><stop offset="0.5" stop-color="#c6a35a"/><stop offset="1" stop-color="#8a6d2f"/></linearGradient>
      <radialGradient id="glow3" cx="0.5" cy="0.3" r="0.75"><stop offset="0" stop-color="#c6a35a" stop-opacity="0.26"/><stop offset="1" stop-color="#c6a35a" stop-opacity="0"/></radialGradient>
    </defs><rect width="800" height="600" fill="url(#sky3)"/><rect width="800" height="600" fill="url(#glow3)"/><g><path d="M0 344 L800 336" stroke="#c6a35a" stroke-opacity="0.12" stroke-width="1.5"/><path d="M0 388 L800 372" stroke="#c6a35a" stroke-opacity="0.14" stroke-width="1.5"/><path d="M0 432 L800 408" stroke="#c6a35a" stroke-opacity="0.16" stroke-width="1.5"/><path d="M0 476 L800 444" stroke="#c6a35a" stroke-opacity="0.18" stroke-width="1.5"/><path d="M0 520 L800 480" stroke="#c6a35a" stroke-opacity="0.20" stroke-width="1.5"/><path d="M0 564 L800 516" stroke="#c6a35a" stroke-opacity="0.22" stroke-width="1.5"/><path d="M0 600 L120 320" stroke="#c6a35a" stroke-opacity="0.08" stroke-width="1"/><path d="M70 600 L190 320" stroke="#c6a35a" stroke-opacity="0.08" stroke-width="1"/><path d="M140 600 L260 320" stroke="#c6a35a" stroke-opacity="0.08" stroke-width="1"/><path d="M210 600 L330 320" stroke="#c6a35a" stroke-opacity="0.08" stroke-width="1"/><path d="M280 600 L400 320" stroke="#c6a35a" stroke-opacity="0.08" stroke-width="1"/><path d="M350 600 L470 320" stroke="#c6a35a" stroke-opacity="0.08" stroke-width="1"/><path d="M420 600 L540 320" stroke="#c6a35a" stroke-opacity="0.08" stroke-width="1"/><path d="M490 600 L610 320" stroke="#c6a35a" stroke-opacity="0.08" stroke-width="1"/><path d="M560 600 L680 320" stroke="#c6a35a" stroke-opacity="0.08" stroke-width="1"/><path d="M630 600 L750 320" stroke="#c6a35a" stroke-opacity="0.08" stroke-width="1"/><path d="M700 600 L820 320" stroke="#c6a35a" stroke-opacity="0.08" stroke-width="1"/><path d="M770 600 L890 320" stroke="#c6a35a" stroke-opacity="0.08" stroke-width="1"/></g><path d="M0 360 Q400 320 800 360 L800 600 L0 600 Z" fill="#0d2c20" opacity="0.55"/><rect x="16" y="16" width="768" height="568" fill="none" stroke="url(#gold3)" stroke-width="1.5" rx="8" opacity="0.4"/></svg>