<svg xmlns="http://www.w3.org/2000/svg" viewBox="0 0 800 600" width="800" height="600"><defs>
      <linearGradient id="sky1" x1="0" y1="0" x2="0" y2="1"><stop offset="0" stop-color="#0e2c20"/><stop offset="1" stop-color="#061a13"/></linearGradient>
      <linearGradient id="gold1" x1="0" y1="0" x2="1" y2="1"><stop offset="0" stop-color="#f0dca0"/><stop offset="0.5" stop-color="#d8b96a"/><stop offset="1" stop-color="#8a6d2f"/></linearGradient>
      <radialGradient id="glow1" cx="0.5" cy="0.3" r="0.75"><stop offset="0" stop-color="#d8b96a" stop-opacity="0.26"/><stop offset="1" stop-color="#d8b96a" stop-opacity="0"/></radialGradient>
    </defs><rect width="800" height="600" fill="url(#sky1)"/><rect width="800" height="600" fill="url(#glow1)"/><g><rect x="120" y="380" width="90" height="180" fill="#0e2c20" opacity="0.9"/><rect x="128" y="392" width="7" height="10" fill="#d8b96a" opacity="0.25"/><rect x="148" y="392" width="7" height="10" fill="#d8b96a" opacity="0.25"/><rect x="168" y="392" width="7" height="10" fill="#d8b96a" opacity="0.25"/><rect x="188" y="392" width="7" height="10" fill="#d8b96a" opacity="0.25"/><rect x="128" y="418" width="7" height="10" fill="#d8b96a" opacity="0.25"/><rect x="148" y="418" width="7" height="10" fill="#d8b96a" opacity="0.25"/><rect x="168" y="418" width="7" height="10" fill="#d8b96a" opacity="0.25"/><rect x="188" y="418" width="7" height="10" fill="#d8b96a" opacity="0.25"/><rect x="128" y="444" width="7" height="10" fill="#d8b96a" opacity="0.25"/><rect x="148" y="444" width="7" height="10" fill="#d8b96a" opacity="0.25"/><rect x="168" y="444" width="7" height="10" fill="#d8b96a" opacity="0.25"/><rect x="188" y="444" width="7" height="10" fill="#d8b96a" opacity="0.25"/><rect x="128" y="470" width="7" height="10" fill="#d8b96a" opacity="0.25"/><rect x="148" y="470" width="7" height="10" fill="#d8b96a" opacity="0.25"/><rect x="168" y="470" width="7" height="10" fill="#d8b96a" opacity="0.25"/><rect x="188" y="470" width="7" height="10" fill="#d8b96a" opacity="0.25"/><rect x="128" y="496" width="7" height="10" fill="#d8b96a" opacity="0.25"/><rect x="148" y="496" width="7" height="10" fill="#d8b96a" opacity="0.25"/><rect x="168" y="496" width="7" height="10" fill="#d8b96a" opacity="0.25"/><rect x="188" y="496" width="7" height="10" fill="#d8b96a" opacity="0.25"/><rect x="128" y="522" width="7" height="10" fill="#d8b96a" opacity="0.25"/><rect x="148" y="522" width="7" height="10" fill="#d8b96a" opacity="0.25"/><rect x="168" y="522" width="7" height="10" fill="#d8b96a" opacity="0.25"/><rect x="188" y="522" width="7" height="10" fill="#d8b96a" opacity="0.25"/><rect x="128" y="548" width="7" height="10" fill="#d8b96a" opacity="0.25"/><rect x="148" y="548" width="7" height="10" fill="#d8b96a" opacity="0.25"/><rect x="168" y="548" width="7" height="10" fill="#d8b96a" opacity="0.25"/><rect x="188" y="548" width="7" height="10" fill="#d8b96a" opacity="0.25"/><rect x="230" y="420" width="150" height="140" fill="#0e2c20" opacity="0.9"/><rect x="238" y="432" width="7" height="10" fill="#d8b96a" opacity="0.25"/><rect x="258" y="432" width="7" height="10" fill="#d8b96a" opacity="0.25"/><rect x="278" y="432" width="7" height="10" fill="#d8b96a" opacity="0.25"/><rect x="298" y="432" width="7" height="10" fill="#d8b96a" opacity="0.25"/><rect x="318" y="432" width="7" height="10" fill="#d8b96a" opacity="0.25"/><rect x="338" y="432" width="7" height="10" fill="#d8b96a" opacity="0.25"/><rect x="358" y="432" width="7" height="10" fill="#d8b96a" opacity="0.25"/><rect x="238" y="458" width="7" height="10" fill="#d8b96a" opacity="0.25"/><rect x="258" y="458" width="7" height="10" fill="#d8b96a" opacity="0.25"/><rect x="278" y="458" width="7" height="10" fill="#d8b96a" opacity="0.25"/><rect x="298" y="458" width="7" height="10" fill="#d8b96a" opacity="0.25"/><rect x="318" y="458" width="7" height="10" fill="#d8b96a" opacity="0.25"/><rect x="338" y="458" width="7" height="10" fill="#d8b96a" opacity="0.25"/><rect x="358" y="458" width="7" height="10" fill="#d8b96a" opacity="0.25"/><rect x="238" y="484" width="7" height="10" fill="#d8b96a" opacity="0.25"/><rect x="258" y="484" width="7" height="10" fill="#d8b96a" opacity="0.25"/><rect x="278" y="484" width="7" height="10" fill="#d8b96a" opacity="0.25"/><rect x="298" y="484" width="7" height="10" fill="#d8b96a" opacity="0.25"/><rect x="318" y="484" width="7" height="10" fill="#d8b96a" opacity="0.25"/><rect x="338" y="484" width="7" height="10" fill="#d8b96a" opacity="0.25"/><rect x="358" y="484" width="7" height="10" fill="#d8b96a" opacity="0.25"/><rect x="238" y="510" width="7" height="10" fill="#d8b96a" opacity="0.25"/><rect x="258" y="510" width="7" height="10" fill="#d8b96a" opacity="0.25"/><rect x="278" y="510" width="7" height="10" fill="#d8b96a" opacity="0.25"/><rect x="298" y="510" width="7" height="10" fill="#d8b96a" opacity="0.25"/><rect x="318" y="510" width="7" height="10" fill="#d8b96a" opacity="0.25"/><rect x="338" y="510" width="7" height="10" fill="#d8b96a" opacity="0.25"/><rect x="358" y="510" width="7" height="10" fill="#d8b96a" opacity="0.25"/><rect x="238" y="536" width="7" height="10" fill="#d8b96a" opacity="0.25"/><rect x="258" y="536" width="7" height="10" fill="#d8b96a" opacity="0.25"/><rect x="278" y="536" width="7" height="10" fill="#d8b96a" opacity="0.25"/><rect x="298" y="536" width="7" height="10" fill="#d8b96a" opacity="0.25"/><rect x="318" y="536" width="7" height="10" fill="#d8b96a" opacity="0.25"/><rect x="338" y="536" width="7" height="10" fill="#d8b96a" opacity="0.25"/><rect x="358" y="536" width="7" height="10" fill="#d8b96a" opacity="0.25"/><rect x="330" y="300" width="70" height="260" fill="#0e2c20" opacity="0.9"/><rect x="338" y="312" width="7" height="10" fill="#d8b96a" opacity="0.25"/><rect x="358" y="312" width="7" height="10" fill="#d8b96a" opacity="0.25"/><rect x="378" y="312" width="7" height="10" fill="#d8b96a" opacity="0.25"/><rect x="338" y="338" width="7" height="10" fill="#d8b96a" opacity="0.25"/><rect x="358" y="338" width="7" height="10" fill="#d8b96a" opacity="0.25"/><rect x="378" y="338" width="7" height="10" fill="#d8b96a" opacity="0.25"/><rect x="338" y="364" width="7" height="10" fill="#d8b96a" opacity="0.25"/><rect x="358" y="364" width="7" height="10" fill="#d8b96a" opacity="0.25"/><rect x="378" y="364" width="7" height="10" fill="#d8b96a" opacity="0.25"/><rect x="338" y="390" width="7" height="10" fill="#d8b96a" opacity="0.25"/><rect x="358" y="390" width="7" height="10" fill="#d8b96a" opacity="0.25"/><rect x="378" y="390" width="7" height="10" fill="#d8b96a" opacity="0.25"/><rect x="338" y="416" width="7" height="10" fill="#d8b96a" opacity="0.25"/><rect x="358" y="416" width="7" height="10" fill="#d8b96a" opacity="0.25"/><rect x="378" y="416" width="7" height="10" fill="#d8b96a" opacity="0.25"/><rect x="338" y="442" width="7" height="10" fill="#d8b96a" opacity="0.25"/><rect x="358" y="442" width="7" height="10" fill="#d8b96a" opacity="0.25"/><rect x="378" y="442" width="7" height="10" fill="#d8b96a" opacity="0.25"/><rect x="338" y="468" width="7" height="10" fill="#d8b96a" opacity="0.25"/><rect x="358" y="468" width="7" height="10" fill="#d8b96a" opacity="0.25"/><rect x="378" y="468" width="7" height="10" fill="#d8b96a" opacity="0.25"/><rect x="338" y="494" width="7" height="10" fill="#d8b96a" opacity="0.25"/><rect x="358" y="494" width="7" height="10" fill="#d8b96a" opacity="0.25"/><rect x="378" y="494" width="7" height="10" fill="#d8b96a" opacity="0.25"/><rect x="338" y="520" width="7" height="10" fill="#d8b96a" opacity="0.25"/><rect x="358" y="520" width="7" height="10" fill="#d8b96a" opacity="0.25"/><rect x="378" y="520" width="7" height="10" fill="#d8b96a" opacity="0.25"/><rect x="338" y="546" width="7" height="10" fill="#d8b96a" opacity="0.25"/><rect x="358" y="546" width="7" height="10" fill="#d8b96a" opacity="0.25"/><rect x="378" y="546" width="7" height="10" fill="#d8b96a" opacity="0.25"/><rect x="420" y="360" width="120" height="200" fill="#0e2c20" opacity="0.9"/><rect x="428" y="372" width="7" height="10" fill="#d8b96a" opacity="0.25"/><rect x="448" y="372" width="7" height="10" fill="#d8b96a" opacity="0.25"/><rect x="468" y="372" width="7" height="10" fill="#d8b96a" opacity="0.25"/><rect x="488" y="372" width="7" height="10" fill="#d8b96a" opacity="0.25"/><rect x="508" y="372" width="7" height="10" fill="#d8b96a" opacity="0.25"/><rect x="528" y="372" width="7" height="10" fill="#d8b96a" opacity="0.25"/><rect x="428" y="398" width="7" height="10" fill="#d8b96a" opacity="0.25"/><rect x="448" y="398" width="7" height="10" fill="#d8b96a" opacity="0.25"/><rect x="468" y="398" width="7" height="10" fill="#d8b96a" opacity="0.25"/><rect x="488" y="398" width="7" height="10" fill="#d8b96a" opacity="0.25"/><rect x="508" y="398" width="7" height="10" fill="#d8b96a" opacity="0.25"/><rect x="528" y="398" width="7" height="10" fill="#d8b96a" opacity="0.25"/><rect x="428" y="424" width="7" height="10" fill="#d8b96a" opacity="0.25"/><rect x="448" y="424" width="7" height="10" fill="#d8b96a" opacity="0.25"/><rect x="468" y="424" width="7" height="10" fill="#d8b96a" opacity="0.25"/><rect x="488" y="424" width="7" height="10" fill="#d8b96a" opacity="0.25"/><rect x="508" y="424" width="7" height="10" fill="#d8b96a" opacity="0.25"/><rect x="528" y="424" width="7" height="10" fill="#d8b96a" opacity="0.25"/><rect x="428" y="450" width="7" height="10" fill="#d8b96a" opacity="0.25"/><rect x="448" y="450" width="7" height="10" fill="#d8b96a" opacity="0.25"/><rect x="468" y="450" width="7" height="10" fill="#d8b96a" opacity="0.25"/><rect x="488" y="450" width="7" height="10" fill="#d8b96a" opacity="0.25"/><rect x="508" y="450" width="7" height="10" fill="#d8b96a" opacity="0.25"/><rect x="528" y="450" width="7" height="10" fill="#d8b96a" opacity="0.25"/><rect x="428" y="476" width="7" height="10" fill="#d8b96a" opacity="0.25"/><rect x="448" y="476" width="7" height="10" fill="#d8b96a" opacity="0.25"/><rect x="468" y="476" width="7" height="10" fill="#d8b96a" opacity="0.25"/><rect x="488" y="476" width="7" height="10" fill="#d8b96a" opacity="0.25"/><rect x="508" y="476" width="7" height="10" fill="#d8b96a" opacity="0.25"/><rect x="528" y="476" width="7" height="10" fill="#d8b96a" opacity="0.25"/><rect x="428" y="502" width="7" height="10" fill="#d8b96a" opacity="0.25"/><rect x="448" y="502" width="7" height="10" fill="#d8b96a" opacity="0.25"/><rect x="468" y="502" width="7" height="10" fill="#d8b96a" opacity="0.25"/><rect x="488" y="502" width="7" height="10" fill="#d8b96a" opacity="0.25"/><rect x="508" y="502" width="7" height="10" fill="#d8b96a" opacity="0.25"/><rect x="528" y="502" width="7" height="10" fill="#d8b96a" opacity="0.25"/><rect x="428" y="528" width="7" height="10" fill="#d8b96a" opacity="0.25"/><rect x="448" y="528" width="7" height="10" fill="#d8b96a" opacity="0.25"/><rect x="468" y="528" width="7" height="10" fill="#d8b96a" opacity="0.25"/><rect x="488" y="528" width="7" height="10" fill="#d8b96a" opacity="0.25"/><rect x="508" y="528" width="7" height="10" fill="#d8b96a" opacity="0.25"/><rect x="528" y="528" width="7" height="10" fill="#d8b96a" opacity="0.25"/><rect x="428" y="554" width="7" height="10" fill="#d8b96a" opacity="0.25"/><rect x="448" y="554" width="7" height="10" fill="#d8b96a" opacity="0.25"/><rect x="468" y="554" width="7" height="10" fill="#d8b96a" opacity="0.25"/><rect x="488" y="554" width="7" height="10" fill="#d8b96a" opacity="0.25"/><rect x="508" y="554" width="7" height="10" fill="#d8b96a" opacity="0.25"/><rect x="528" y="554" width="7" height="10" fill="#d8b96a" opacity="0.25"/><rect x="540" y="260" width="95" height="300" fill="#0e2c20" opacity="0.9"/><rect x="548" y="272" width="7" height="10" fill="#d8b96a" opacity="0.25"/><rect x="568" y="272" width="7" height="10" fill="#d8b96a" opacity="0.25"/><rect x="588" y="272" width="7" height="10" fill="#d8b96a" opacity="0.25"/><rect x="608" y="272" width="7" height="10" fill="#d8b96a" opacity="0.25"/><rect x="628" y="272" width="7" height="10" fill="#d8b96a" opacity="0.25"/><rect x="548" y="298" width="7" height="10" fill="#d8b96a" opacity="0.25"/><rect x="568" y="298" width="7" height="10" fill="#d8b96a" opacity="0.25"/><rect x="588" y="298" width="7" height="10" fill="#d8b96a" opacity="0.25"/><rect x="608" y="298" width="7" height="10" fill="#d8b96a" opacity="0.25"/><rect x="628" y="298" width="7" height="10" fill="#d8b96a" opacity="0.25"/><rect x="548" y="324" width="7" height="10" fill="#d8b96a" opacity="0.25"/><rect x="568" y="324" width="7" height="10" fill="#d8b96a" opacity="0.25"/><rect x="588" y="324" width="7" height="10" fill="#d8b96a" opacity="0.25"/><rect x="608" y="324" width="7" height="10" fill="#d8b96a" opacity="0.25"/><rect x="628" y="324" width="7" height="10" fill="#d8b96a" opacity="0.25"/><rect x="548" y="350" width="7" height="10" fill="#d8b96a" opacity="0.25"/><rect x="568" y="350" width="7" height="10" fill="#d8b96a" opacity="0.25"/><rect x="588" y="350" width="7" height="10" fill="#d8b96a" opacity="0.25"/><rect x="608" y="350" width="7" height="10" fill="#d8b96a" opacity="0.25"/><rect x="628" y="350" width="7" height="10" fill="#d8b96a" opacity="0.25"/><rect x="548" y="376" width="7" height="10" fill="#d8b96a" opacity="0.25"/><rect x="568" y="376" width="7" height="10" fill="#d8b96a" opacity="0.25"/><rect x="588" y="376" width="7" height="10" fill="#d8b96a" opacity="0.25"/><rect x="608" y="376" width="7" height="10" fill="#d8b96a" opacity="0.25"/><rect x="628" y="376" width="7" height="10" fill="#d8b96a" opacity="0.25"/><rect x="548" y="402" width="7" height="10" fill="#d8b96a" opacity="0.25"/><rect x="568" y="402" width="7" height="10" fill="#d8b96a" opacity="0.25"/><rect x="588" y="402" width="7" height="10" fill="#d8b96a" opacity="0.25"/><rect x="608" y="402" width="7" height="10" fill="#d8b96a" opacity="0.25"/><rect x="628" y="402" width="7" height="10" fill="#d8b96a" opacity="0.25"/><rect x="548" y="428" width="7" height="10" fill="#d8b96a" opacity="0.25"/><rect x="568" y="428" width="7" height="10" fill="#d8b96a" opacity="0.25"/><rect x="588" y="428" width="7" height="10" fill="#d8b96a" opacity="0.25"/><rect x="608" y="428" width="7" height="10" fill="#d8b96a" opacity="0.25"/><rect x="628" y="428" width="7" height="10" fill="#d8b96a" opacity="0.25"/><rect x="548" y="454" width="7" height="10" fill="#d8b96a" opacity="0.25"/><rect x="568" y="454" width="7" height="10" fill="#d8b96a" opacity="0.25"/><rect x="588" y="454" width="7" height="10" fill="#d8b96a" opacity="0.25"/><rect x="608" y="454" width="7" height="10" fill="#d8b96a" opacity="0.25"/><rect x="628" y="454" width="7" height="10" fill="#d8b96a" opacity="0.25"/><rect x="548" y="480" width="7" height="10" fill="#d8b96a" opacity="0.25"/><rect x="568" y="480" width="7" height="10" fill="#d8b96a" opacity="0.25"/><rect x="588" y="480" width="7" height="10" fill="#d8b96a" opacity="0.25"/><rect x="608" y="480" width="7" height="10" fill="#d8b96a" opacity="0.25"/><rect x="628" y="480" width="7" height="10" fill="#d8b96a" opacity="0.25"/><rect x="548" y="506" width="7" height="10" fill="#d8b96a" opacity="0.25"/><rect x="568" y="506" width="7" height="10" fill="#d8b96a" opacity="0.25"/><rect x="588" y="506" width="7" height="10" fill="#d8b96a" opacity="0.25"/><rect x="608" y="506" width="7" height="10" fill="#d8b96a" opacity="0.25"/><rect x="628" y="506" width="7" height="10" fill="#d8b96a" opacity="0.25"/><rect x="548" y="532" width="7" height="10" fill="#d8b96a" opacity="0.25"/><rect x="568" y="532" width="7" height="10" fill="#d8b96a" opacity="0.25"/><rect x="588" y="532" width="7" height="10" fill="#d8b96a" opacity="0.25"/><rect x="608" y="532" width="7" height="10" fill="#d8b96a" opacity="0.25"/><rect x="628" y="532" width="7" height="10" fill="#d8b96a" opacity="0.25"/><rect x="548" y="558" width="7" height="10" fill="#d8b96a" opacity="0.25"/><rect x="568" y="558" width="7" height="10" fill="#d8b96a" opacity="0.25"/><rect x="588" y="558" width="7" height="10" fill="#d8b96a" opacity="0.25"/><rect x="608" y="558" width="7" height="10" fill="#d8b96a" opacity="0.25"/><rect x="628" y="558" width="7" height="10" fill="#d8b96a" opacity="0.25"/><rect x="650" y="390" width="140" height="170" fill="#0e2c20" opacity="0.9"/><rect x="658" y="402" width="7" height="10" fill="#d8b96a" opacity="0.25"/><rect x="678" y="402" width="7" height="10" fill="#d8b96a" opacity="0.25"/><rect x="698" y="402" width="7" height="10" fill="#d8b96a" opacity="0.25"/><rect x="718" y="402" width="7" height="10" fill="#d8b96a" opacity="0.25"/><rect x="738" y="402" width="7" height="10" fill="#d8b96a" opacity="0.25"/><rect x="758" y="402" width="7" height="10" fill="#d8b96a" opacity="0.25"/><rect x="778" y="402" width="7" height="10" fill="#d8b96a" opacity="0.25"/><rect x="658" y="428" width="7" height="10" fill="#d8b96a" opacity="0.25"/><rect x="678" y="428" width="7" height="10" fill="#d8b96a" opacity="0.25"/><rect x="698" y="428" width="7" height="10" fill="#d8b96a" opacity="0.25"/><rect x="718" y="428" width="7" height="10" fill="#d8b96a" opacity="0.25"/><rect x="738" y="428" width="7" height="10" fill="#d8b96a" opacity="0.25"/><rect x="758" y="428" width="7" height="10" fill="#d8b96a" opacity="0.25"/><rect x="778" y="428" width="7" height="10" fill="#d8b96a" opacity="0.25"/><rect x="658" y="454" width="7" height="10" fill="#d8b96a" opacity="0.25"/><rect x="678" y="454" width="7" height="10" fill="#d8b96a" opacity="0.25"/><rect x="698" y="454" width="7" height="10" fill="#d8b96a" opacity="0.25"/><rect x="718" y="454" width="7" height="10" fill="#d8b96a" opacity="0.25"/><rect x="738" y="454" width="7" height="10" fill="#d8b96a" opacity="0.25"/><rect x="758" y="454" width="7" height="10" fill="#d8b96a" opacity="0.25"/><rect x="778" y="454" width="7" height="10" fill="#d8b96a" opacity="0.25"/><rect x="658" y="480" width="7" height="10" fill="#d8b96a" opacity="0.25"/><rect x="678" y="480" width="7" height="10" fill="#d8b96a" opacity="0.25"/><rect x="698" y="480" width="7" height="10" fill="#d8b96a" opacity="0.25"/><rect x="718" y="480" width="7" height="10" fill="#d8b96a" opacity="0.25"/><rect x="738" y="480" width="7" height="10" fill="#d8b96a" opacity="0.25"/><rect x="758" y="480" width="7" height="10" fill="#d8b96a" opacity="0.25"/><rect x="778" y="480" width="7" height="10" fill="#d8b96a" opacity="0.25"/><rect x="658" y="506" width="7" height="10" fill="#d8b96a" opacity="0.25"/><rect x="678" y="506" width="7" height="10" fill="#d8b96a" opacity="0.25"/><rect x="698" y="506" width="7" height="10" fill="#d8b96a" opacity="0.25"/><rect x="718" y="506" width="7" height="10" fill="#d8b96a" opacity="0.25"/><rect x="738" y="506" width="7" height="10" fill="#d8b96a" opacity="0.25"/><rect x="758" y="506" width="7" height="10" fill="#d8b96a" opacity="0.25"/><rect x="778" y="506" width="7" height="10" fill="#d8b96a" opacity="0.25"/><rect x="658" y="532" width="7" height="10" fill="#d8b96a" opacity="0.25"/><rect x="678" y="532" width="7" height="10" fill="#d8b96a" opacity="0.25"/><rect x="698" y="532" width="7" height="10" fill="#d8b96a" opacity="0.25"/><rect x="718" y="532" width="7" height="10" fill="#d8b96a" opacity="0.25"/><rect x="738" y="532" width="7" height="10" fill="#d8b96a" opacity="0.25"/><rect x="758" y="532" width="7" height="10" fill="#d8b96a" opacity="0.25"/><rect x="778" y="532" width="7" height="10" fill="#d8b96a" opacity="0.25"/><rect x="658" y="558" width="7" height="10" fill="#d8b96a" opacity="0.25"/><rect x="678" y="558" width="7" height="10" fill="#d8b96a" opacity="0.25"/><rect x="698" y="558" width="7" height="10" fill="#d8b96a" opacity="0.25"/><rect x="718" y="558" width="7" height="10" fill="#d8b96a" opacity="0.25"/><rect x="738" y="558" width="7" height="10" fill="#d8b96a" opacity="0.25"/><rect x="758" y="558" width="7" height="10" fill="#d8b96a" opacity="0.25"/><rect x="778" y="558" width="7" height="10" fill="#d8b96a" opacity="0.25"/><rect x="720" y="330" width="80" height="230" fill="#0e2c20" opacity="0.9"/><rect x="728" y="342" width="7" height="10" fill="#d8b96a" opacity="0.25"/><rect x="748" y="342" width="7" height="10" fill="#d8b96a" opacity="0.25"/><rect x="768" y="342" width="7" height="10" fill="#d8b96a" opacity="0.25"/><rect x="788" y="342" width="7" height="10" fill="#d8b96a" opacity="0.25"/><rect x="728" y="368" width="7" height="10" fill="#d8b96a" opacity="0.25"/><rect x="748" y="368" width="7" height="10" fill="#d8b96a" opacity="0.25"/><rect x="768" y="368" width="7" height="10" fill="#d8b96a" opacity="0.25"/><rect x="788" y="368" width="7" height="10" fill="#d8b96a" opacity="0.25"/><rect x="728" y="394" width="7" height="10" fill="#d8b96a" opacity="0.25"/><rect x="748" y="394" width="7" height="10" fill="#d8b96a" opacity="0.25"/><rect x="768" y="394" width="7" height="10" fill="#d8b96a" opacity="0.25"/><rect x="788" y="394" width="7" height="10" fill="#d8b96a" opacity="0.25"/><rect x="728" y="420" width="7" height="10" fill="#d8b96a" opacity="0.25"/><rect x="748" y="420" width="7" height="10" fill="#d8b96a" opacity="0.25"/><rect x="768" y="420" width="7" height="10" fill="#d8b96a" opacity="0.25"/><rect x="788" y="420" width="7" height="10" fill="#d8b96a" opacity="0.25"/><rect x="728" y="446" width="7" height="10" fill="#d8b96a" opacity="0.25"/><rect x="748" y="446" width="7" height="10" fill="#d8b96a" opacity="0.25"/><rect x="768" y="446" width="7" height="10" fill="#d8b96a" opacity="0.25"/><rect x="788" y="446" width="7" height="10" fill="#d8b96a" opacity="0.25"/><rect x="728" y="472" width="7" height="10" fill="#d8b96a" opacity="0.25"/><rect x="748" y="472" width="7" height="10" fill="#d8b96a" opacity="0.25"/><rect x="768" y="472" width="7" height="10" fill="#d8b96a" opacity="0.25"/><rect x="788" y="472" width="7" height="10" fill="#d8b96a" opacity="0.25"/><rect x="728" y="498" width="7" height="10" fill="#d8b96a" opacity="0.25"/><rect x="748" y="498" width="7" height="10" fill="#d8b96a" opacity="0.25"/><rect x="768" y="498" width="7" height="10" fill="#d8b96a" opacity="0.25"/><rect x="788" y="498" width="7" height="10" fill="#d8b96a" opacity="0.25"/><rect x="728" y="524" width="7" height="10" fill="#d8b96a" opacity="0.25"/><rect x="748" y="524" width="7" height="10" fill="#d8b96a" opacity="0.25"/><rect x="768" y="524" width="7" height="10" fill="#d8b96a" opacity="0.25"/><rect x="788" y="524" width="7" height="10" fill="#d8b96a" opacity="0.25"/><rect x="728" y="550" width="7" height="10" fill="#d8b96a" opacity="0.25"/><rect x="748" y="550" width="7" height="10" fill="#d8b96a" opacity="0.25"/><rect x="768" y="550" width="7" height="10" fill="#d8b96a" opacity="0.25"/><rect x="788" y="550" width="7" height="10" fill="#d8b96a" opacity="0.25"/></g><rect x="0" y="556" width="800" height="44" fill="#0a1f17"/><rect x="16" y="16" width="768" height="568" fill="none" stroke="url(#gold1)" stroke-width="1.5" rx="8" opacity="0.4"/></svg>