<svg xmlns="http://www.w3.org/2000/svg" viewBox="0 0 800 600" width="800" height="600"><defs>
      <linearGradient id="sky4" x1="0" y1="0" x2="0" y2="1"><stop offset="0" stop-color="#0c2a2e"/><stop offset="1" stop-color="#06151a"/></linearGradient>
      <linearGradient id="gold4" x1="0" y1="0" x2="1" y2="1"><stop offset="0" stop-color="#f0dca0"/><stop offset="0.5" stop-color="#d8b96a"/><stop offset="1" stop-color="#8a6d2f"/></linearGradient>
      <radialGradient id="glow4" cx="0.5" cy="0.3" r="0.75"><stop offset="0" stop-color="#d8b96a" stop-opacity="0.26"/><stop offset="1" stop-color="#d8b96a" stop-opacity="0"/></radialGradient>
    </defs><rect width="800" height="600" fill="url(#sky4)"/><rect width="800" height="600" fill="url(#glow4)"/><path d="M0 430 Q400 410 800 440 L800 600 L0 600 Z" fill="#0a1f2a" opacity="0.85"/><rect x="120" y="350" width="6" height="120" fill="url(#gold4)"/><path d="M126 360 L180 380 L126 400 Z" fill="#d8b96a" opacity="0.5"/><rect x="230" y="350" width="6" height="120" fill="url(#gold4)"/><path d="M236 360 L290 380 L236 400 Z" fill="#d8b96a" opacity="0.5"/><rect x="340" y="350" width="6" height="120" fill="url(#gold4)"/><path d="M346 360 L400 380 L346 400 Z" fill="#d8b96a" opacity="0.5"/><rect x="450" y="350" width="6" height="120" fill="url(#gold4)"/><path d="M456 360 L510 380 L456 400 Z" fill="#d8b96a" opacity="0.5"/><rect x="560" y="350" width="6" height="120" fill="url(#gold4)"/><path d="M566 360 L620 380 L566 400 Z" fill="#d8b96a" opacity="0.5"/><rect x="670" y="350" width="6" height="120" fill="url(#gold4)"/><path d="M676 360 L730 380 L676 400 Z" fill="#d8b96a" opacity="0.5"/><g opacity="0.3"><path d="M0 470 Q400 455 800 480" stroke="#d8b96a" fill="none" stroke-width="2"/></g><rect x="16" y="16" width="768" height="568" fill="none" stroke="url(#gold4)" stroke-width="1.5" rx="8" opacity="0.4"/></svg>